<mxfile host="65bd71144e">
    <diagram id="h8AJteOth-Lrlw-Hd9tL" name="Page-1">
        <mxGraphModel dx="750" dy="505" grid="1" gridSize="10" guides="1" tooltips="1" connect="1" arrows="1" fold="1" page="1" pageScale="1" pageWidth="827" pageHeight="1169" math="0" shadow="0">
            <root>
                <mxCell id="0"/>
                <mxCell id="1" parent="0"/>
            </root>
        </mxGraphModel>
    </diagram>
    <diagram id="xWZ9b3wMbZgq6c-O2fp2" name="Design">
        <mxGraphModel dx="450" dy="303" grid="1" gridSize="10" guides="1" tooltips="1" connect="1" arrows="1" fold="1" page="1" pageScale="1" pageWidth="850" pageHeight="1100" math="0" shadow="0">
            <root>
                <mxCell id="0"/>
                <mxCell id="1" parent="0"/>
                <mxCell id="2" value="" style="rounded=1;whiteSpace=wrap;html=1;" parent="1" vertex="1">
                    <mxGeometry x="250" y="375" width="390" height="385" as="geometry"/>
                </mxCell>
                <mxCell id="4" style="edgeStyle=none;html=1;exitX=0.75;exitY=1;exitDx=0;exitDy=0;entryX=0.122;entryY=0.006;entryDx=0;entryDy=0;entryPerimeter=0;" parent="1" source="3" target="2" edge="1">
                    <mxGeometry relative="1" as="geometry"/>
                </mxCell>
                <mxCell id="3" value="Div id container&lt;br&gt;display grid" style="rounded=0;whiteSpace=wrap;html=1;" parent="1" vertex="1">
                    <mxGeometry x="70" y="230" width="250" height="60" as="geometry"/>
                </mxCell>
                <mxCell id="5" value="" style="rounded=0;whiteSpace=wrap;html=1;" parent="1" vertex="1">
                    <mxGeometry x="270" y="410" width="340" height="60" as="geometry"/>
                </mxCell>
                <mxCell id="7" style="edgeStyle=none;html=1;exitX=0.25;exitY=1;exitDx=0;exitDy=0;" parent="1" source="6" target="5" edge="1">
                    <mxGeometry relative="1" as="geometry"/>
                </mxCell>
                <mxCell id="6" value="Div for favourite icon&lt;br&gt;set to start 1, end 5." style="rounded=0;whiteSpace=wrap;html=1;" parent="1" vertex="1">
                    <mxGeometry x="450" y="230" width="310" height="60" as="geometry"/>
                </mxCell>
                <mxCell id="8" value="" style="rounded=0;whiteSpace=wrap;html=1;" parent="1" vertex="1">
                    <mxGeometry x="270" y="480" width="340" height="120" as="geometry"/>
                </mxCell>
                <mxCell id="10" style="edgeStyle=none;html=1;exitX=1;exitY=0.75;exitDx=0;exitDy=0;" parent="1" source="9" target="8" edge="1">
                    <mxGeometry relative="1" as="geometry"/>
                </mxCell>
                <mxCell id="9" value="Text div&amp;nbsp;" style="rounded=0;whiteSpace=wrap;html=1;" parent="1" vertex="1">
                    <mxGeometry x="30" y="500" width="120" height="60" as="geometry"/>
                </mxCell>
                <mxCell id="11" value="" style="rounded=0;whiteSpace=wrap;html=1;" parent="1" vertex="1">
                    <mxGeometry x="270" y="610" width="60" height="60" as="geometry"/>
                </mxCell>
                <mxCell id="12" value="" style="rounded=0;whiteSpace=wrap;html=1;" parent="1" vertex="1">
                    <mxGeometry x="340" y="610" width="60" height="60" as="geometry"/>
                </mxCell>
                <mxCell id="13" value="" style="rounded=0;whiteSpace=wrap;html=1;" parent="1" vertex="1">
                    <mxGeometry x="410" y="610" width="60" height="60" as="geometry"/>
                </mxCell>
                <mxCell id="14" value="" style="rounded=0;whiteSpace=wrap;html=1;" parent="1" vertex="1">
                    <mxGeometry x="480" y="610" width="60" height="60" as="geometry"/>
                </mxCell>
                <mxCell id="15" value="" style="rounded=0;whiteSpace=wrap;html=1;" parent="1" vertex="1">
                    <mxGeometry x="550" y="610" width="60" height="60" as="geometry"/>
                </mxCell>
                <mxCell id="17" style="edgeStyle=none;html=1;exitX=1;exitY=0.25;exitDx=0;exitDy=0;entryX=0;entryY=0.75;entryDx=0;entryDy=0;" parent="1" source="16" target="11" edge="1">
                    <mxGeometry relative="1" as="geometry"/>
                </mxCell>
                <mxCell id="16" value="Star buttons" style="rounded=0;whiteSpace=wrap;html=1;" parent="1" vertex="1">
                    <mxGeometry x="40" y="670" width="120" height="60" as="geometry"/>
                </mxCell>
                <mxCell id="19" value="" style="rounded=1;whiteSpace=wrap;html=1;" parent="1" vertex="1">
                    <mxGeometry x="300" y="690" width="290" height="50" as="geometry"/>
                </mxCell>
                <mxCell id="21" style="edgeStyle=none;html=1;exitX=0.75;exitY=0;exitDx=0;exitDy=0;" parent="1" source="20" target="19" edge="1">
                    <mxGeometry relative="1" as="geometry"/>
                </mxCell>
                <mxCell id="20" value="Subit button" style="rounded=0;whiteSpace=wrap;html=1;" parent="1" vertex="1">
                    <mxGeometry x="150" y="790" width="120" height="60" as="geometry"/>
                </mxCell>
            </root>
        </mxGraphModel>
    </diagram>
    <diagram id="lhx8RozCbyeSNjGpFjK7" name="HTML &amp; CSS">
        <mxGraphModel dx="450" dy="303" grid="1" gridSize="10" guides="1" tooltips="1" connect="1" arrows="1" fold="1" page="1" pageScale="1" pageWidth="850" pageHeight="1100" math="0" shadow="0">
            <root>
                <mxCell id="0"/>
                <mxCell id="1" parent="0"/>
                <mxCell id="rNBkue9HxYoO60r37kfL-3" value="" style="edgeStyle=none;html=1;" parent="1" source="rNBkue9HxYoO60r37kfL-1" target="rNBkue9HxYoO60r37kfL-2" edge="1">
                    <mxGeometry relative="1" as="geometry"/>
                </mxCell>
                <mxCell id="rNBkue9HxYoO60r37kfL-1" value="Create HTML file" style="rounded=0;whiteSpace=wrap;html=1;" parent="1" vertex="1">
                    <mxGeometry x="40" y="40" width="120" height="60" as="geometry"/>
                </mxCell>
                <mxCell id="rNBkue9HxYoO60r37kfL-5" value="" style="edgeStyle=none;html=1;" parent="1" source="rNBkue9HxYoO60r37kfL-2" target="rNBkue9HxYoO60r37kfL-4" edge="1">
                    <mxGeometry relative="1" as="geometry"/>
                </mxCell>
                <mxCell id="rNBkue9HxYoO60r37kfL-2" value="Creat CSS file" style="rounded=0;whiteSpace=wrap;html=1;" parent="1" vertex="1">
                    <mxGeometry x="40" y="120" width="120" height="60" as="geometry"/>
                </mxCell>
                <mxCell id="rNBkue9HxYoO60r37kfL-7" value="" style="edgeStyle=none;html=1;" parent="1" source="rNBkue9HxYoO60r37kfL-4" target="rNBkue9HxYoO60r37kfL-6" edge="1">
                    <mxGeometry relative="1" as="geometry"/>
                </mxCell>
                <mxCell id="rNBkue9HxYoO60r37kfL-4" value="Create JS file" style="rounded=0;whiteSpace=wrap;html=1;" parent="1" vertex="1">
                    <mxGeometry x="40" y="200" width="120" height="60" as="geometry"/>
                </mxCell>
                <mxCell id="rNBkue9HxYoO60r37kfL-9" value="" style="edgeStyle=none;html=1;" parent="1" source="rNBkue9HxYoO60r37kfL-6" target="rNBkue9HxYoO60r37kfL-8" edge="1">
                    <mxGeometry relative="1" as="geometry"/>
                </mxCell>
                <mxCell id="rNBkue9HxYoO60r37kfL-6" value="Link files" style="rounded=0;whiteSpace=wrap;html=1;" parent="1" vertex="1">
                    <mxGeometry x="40" y="280" width="120" height="60" as="geometry"/>
                </mxCell>
                <mxCell id="rNBkue9HxYoO60r37kfL-11" value="" style="edgeStyle=none;html=1;" parent="1" source="rNBkue9HxYoO60r37kfL-8" target="rNBkue9HxYoO60r37kfL-10" edge="1">
                    <mxGeometry relative="1" as="geometry"/>
                </mxCell>
                <mxCell id="rNBkue9HxYoO60r37kfL-23" value="" style="edgeStyle=none;html=1;dashed=1;" parent="1" source="rNBkue9HxYoO60r37kfL-8" target="rNBkue9HxYoO60r37kfL-22" edge="1">
                    <mxGeometry relative="1" as="geometry"/>
                </mxCell>
                <mxCell id="rNBkue9HxYoO60r37kfL-8" value="Create basic HTML Structure" style="rounded=0;whiteSpace=wrap;html=1;" parent="1" vertex="1">
                    <mxGeometry x="40" y="360" width="120" height="60" as="geometry"/>
                </mxCell>
                <mxCell id="rNBkue9HxYoO60r37kfL-13" value="" style="edgeStyle=none;html=1;" parent="1" source="rNBkue9HxYoO60r37kfL-10" target="rNBkue9HxYoO60r37kfL-12" edge="1">
                    <mxGeometry relative="1" as="geometry"/>
                </mxCell>
                <mxCell id="rNBkue9HxYoO60r37kfL-10" value="Create container div" style="shape=hexagon;perimeter=hexagonPerimeter2;whiteSpace=wrap;html=1;fixedSize=1;" parent="1" vertex="1">
                    <mxGeometry x="190" y="350" width="150" height="80" as="geometry"/>
                </mxCell>
                <mxCell id="rNBkue9HxYoO60r37kfL-15" value="" style="edgeStyle=none;html=1;" parent="1" source="rNBkue9HxYoO60r37kfL-12" target="rNBkue9HxYoO60r37kfL-14" edge="1">
                    <mxGeometry relative="1" as="geometry"/>
                </mxCell>
                <mxCell id="rNBkue9HxYoO60r37kfL-19" value="" style="edgeStyle=none;html=1;" parent="1" source="rNBkue9HxYoO60r37kfL-12" target="rNBkue9HxYoO60r37kfL-18" edge="1">
                    <mxGeometry relative="1" as="geometry"/>
                </mxCell>
                <mxCell id="rNBkue9HxYoO60r37kfL-12" value="Within container, create favourite &amp;amp; text divs" style="shape=hexagon;perimeter=hexagonPerimeter2;whiteSpace=wrap;html=1;fixedSize=1;" parent="1" vertex="1">
                    <mxGeometry x="370" y="350" width="150" height="80" as="geometry"/>
                </mxCell>
                <mxCell id="rNBkue9HxYoO60r37kfL-17" value="" style="edgeStyle=none;html=1;" parent="1" source="rNBkue9HxYoO60r37kfL-14" target="rNBkue9HxYoO60r37kfL-16" edge="1">
                    <mxGeometry relative="1" as="geometry"/>
                </mxCell>
                <mxCell id="rNBkue9HxYoO60r37kfL-14" value="Create 5 star buttons" style="shape=hexagon;perimeter=hexagonPerimeter2;whiteSpace=wrap;html=1;fixedSize=1;" parent="1" vertex="1">
                    <mxGeometry x="560" y="350" width="150" height="80" as="geometry"/>
                </mxCell>
                <mxCell id="rNBkue9HxYoO60r37kfL-21" value="" style="edgeStyle=none;html=1;" parent="1" source="rNBkue9HxYoO60r37kfL-16" target="rNBkue9HxYoO60r37kfL-20" edge="1">
                    <mxGeometry relative="1" as="geometry"/>
                </mxCell>
                <mxCell id="rNBkue9HxYoO60r37kfL-16" value="Create submit button" style="shape=hexagon;perimeter=hexagonPerimeter2;whiteSpace=wrap;html=1;fixedSize=1;" parent="1" vertex="1">
                    <mxGeometry x="560" y="250" width="150" height="80" as="geometry"/>
                </mxCell>
                <mxCell id="rNBkue9HxYoO60r37kfL-18" value="Within favourite div, &lt;br&gt;create fav button" style="shape=hexagon;perimeter=hexagonPerimeter2;whiteSpace=wrap;html=1;fixedSize=1;" parent="1" vertex="1">
                    <mxGeometry x="370" y="250" width="150" height="80" as="geometry"/>
                </mxCell>
                <mxCell id="rNBkue9HxYoO60r37kfL-20" value="Add H1 and p contents&amp;nbsp;&lt;br&gt;within text div" style="shape=hexagon;perimeter=hexagonPerimeter2;whiteSpace=wrap;html=1;fixedSize=1;" parent="1" vertex="1">
                    <mxGeometry x="560" y="150" width="150" height="80" as="geometry"/>
                </mxCell>
                <mxCell id="rNBkue9HxYoO60r37kfL-22" value="CSS" style="rounded=0;whiteSpace=wrap;html=1;" parent="1" vertex="1">
                    <mxGeometry x="40" y="490" width="120" height="60" as="geometry"/>
                </mxCell>
            </root>
        </mxGraphModel>
    </diagram>
</mxfile>